<svg xmlns="http://www.w3.org/2000/svg" version="1.1" xmlns:xlink="http://www.w3.org/1999/xlink" xmlns:svgjs="http://svgjs.com/svgjs" width="70" height="70"><svg width="70" height="70" viewBox="0 0 70 70" fill="none" xmlns="http://www.w3.org/2000/svg">
<path fill-rule="evenodd" clip-rule="evenodd" d="M19.6943 15.7889C19.6943 17.6119 18.2453 19.0609 16.4223 19.0609C14.6461 19.0609 13.1504 17.6119 13.1504 15.7889C13.1504 14.0127 14.6461 12.517 16.4223 12.517C18.292 12.517 19.6943 14.0127 19.6943 15.7889Z" fill="#F47920"></path>
<path fill-rule="evenodd" clip-rule="evenodd" d="M27.0791 8.49742C27.0791 10.2736 25.6301 11.7694 23.8071 11.7694C22.0309 11.7694 20.5352 10.2736 20.5352 8.49742C20.5352 6.67447 22.0309 5.22546 23.8071 5.22546C25.6301 5.22546 27.0791 6.67447 27.0791 8.49742Z" fill="#F47920"></path>
<path fill-rule="evenodd" clip-rule="evenodd" d="M38.1572 5.27195C38.1572 7.04816 36.7082 8.54391 34.8852 8.54391C33.0623 8.54391 31.6133 7.04816 31.6133 5.27195C31.6133 3.44901 33.0623 2 34.8852 2C36.6614 2 38.1572 3.44901 38.1572 5.27195Z" fill="#F47920"></path>
<path fill-rule="evenodd" clip-rule="evenodd" d="M49.2353 8.54405C49.2353 10.3203 47.7863 11.7693 45.9634 11.7693C44.1872 11.7693 42.6914 10.3203 42.6914 8.54405C42.6914 6.7211 44.1404 5.2721 45.9634 5.2721C47.7863 5.22535 49.2353 6.67436 49.2353 8.54405Z" fill="#F47920"></path>
<path fill-rule="evenodd" clip-rule="evenodd" d="M56.6201 15.7889C56.6201 17.6119 55.1243 19.0609 53.3481 19.0609C51.5252 19.0609 50.0762 17.6119 50.0762 15.7889C50.0762 14.0127 51.5252 12.517 53.3481 12.517C55.1243 12.517 56.6201 14.0127 56.6201 15.7889Z" fill="#F47920"></path>
<path d="M59.2379 22.9405H57.5552C55.8258 22.9405 54.6105 23.4547 53.8626 24.5297C53.1147 25.6048 52.7408 27.4277 52.7408 29.9518V48.2748C52.7408 52.1544 52.3668 55.4731 51.619 58.2776C50.8711 61.0821 49.1416 63.4192 46.3838 65.2422C43.626 67.0651 39.9334 68 35.3059 68C30.8187 68 27.2195 67.1586 24.415 65.5694C21.6105 63.9334 19.7875 61.83 18.8994 59.2592C18.0113 56.6883 17.5906 52.762 17.5906 47.3867V29.7181C17.5906 27.4277 17.2635 25.6983 16.6558 24.6232C16.0482 23.5014 14.7394 22.9872 12.6827 22.9872H11V21.7252H30.5382V22.9872H28.762C27.313 22.9872 26.1912 23.3612 25.2564 24.1558C24.3683 24.9504 23.9008 26.7733 23.9008 29.7181V49.4433C23.9008 53.1827 24.2748 56.1742 24.9759 58.3711C25.7238 60.568 26.9858 62.2507 28.762 63.4192C30.585 64.5878 32.8753 65.1487 35.6331 65.1487C38.2974 65.1487 40.7748 64.5878 43.1119 63.4192C45.449 62.2974 47.1317 60.7082 48.1133 58.745C49.0949 56.7818 49.609 53.1827 49.609 47.9943V29.6714C49.609 26.6799 49.1884 24.8102 48.347 24.0623C47.5056 23.3144 46.3371 22.9405 44.7946 22.9405H43.1119V21.6785H59.0977V22.9405H59.2379Z" fill="#005883"></path>
</svg><style>@media (prefers-color-scheme: light) { :root { filter: none; } }
</style></svg>