<svg width="483" height="130" viewBox="0 0 483 130" fill="none" xmlns="http://www.w3.org/2000/svg">
<path fill-rule="evenodd" clip-rule="evenodd" d="M17.1125 27.1408C17.1125 30.7289 14.2604 33.581 10.6723 33.581C7.17617 33.581 4.23209 30.7289 4.23209 27.1408C4.23209 23.6447 7.17617 20.7006 10.6723 20.7006C14.3524 20.7006 17.1125 23.6447 17.1125 27.1408Z" fill="#F47920"/>
<path fill-rule="evenodd" clip-rule="evenodd" d="M31.6489 12.7888C31.6489 16.2849 28.7968 19.2289 25.2087 19.2289C21.7126 19.2289 18.7686 16.2849 18.7686 12.7888C18.7686 9.20065 21.7126 6.34857 25.2087 6.34857C28.7968 6.34857 31.6489 9.20065 31.6489 12.7888Z" fill="#F47920"/>
<path fill-rule="evenodd" clip-rule="evenodd" d="M53.4535 6.44018C53.4535 9.93628 50.6014 12.8804 47.0133 12.8804C43.4252 12.8804 40.5732 9.93628 40.5732 6.44018C40.5732 2.85208 43.4252 0 47.0133 0C50.5094 0 53.4535 2.85208 53.4535 6.44018Z" fill="#F47920"/>
<path fill-rule="evenodd" clip-rule="evenodd" d="M75.2582 12.8808C75.2582 16.3769 72.4061 19.229 68.818 19.229C65.3219 19.229 62.3778 16.3769 62.3778 12.8808C62.3778 9.29266 65.2299 6.44058 68.818 6.44058C72.4061 6.34858 75.2582 9.20066 75.2582 12.8808Z" fill="#F47920"/>
<path fill-rule="evenodd" clip-rule="evenodd" d="M89.7946 27.1408C89.7946 30.7289 86.8505 33.581 83.3544 33.581C79.7663 33.581 76.9142 30.7289 76.9142 27.1408C76.9142 23.6447 79.7663 20.7006 83.3544 20.7006C86.8505 20.7006 89.7946 23.6447 89.7946 27.1408Z" fill="#F47920"/>
<path fill-rule="evenodd" clip-rule="evenodd" d="M156.128 102.859C156.128 99.2711 153.276 96.419 149.688 96.419C146.192 96.419 143.248 99.2711 143.248 102.859C143.248 106.355 146.192 109.299 149.688 109.299C153.276 109.299 156.128 106.355 156.128 102.859Z" fill="#F47920"/>
<path fill-rule="evenodd" clip-rule="evenodd" d="M170.665 117.212C170.665 113.716 167.813 110.772 164.225 110.772C160.729 110.772 157.785 113.716 157.785 117.212C157.785 120.8 160.729 123.652 164.225 123.652C167.813 123.652 170.665 120.8 170.665 117.212Z" fill="#F47920"/>
<path fill-rule="evenodd" clip-rule="evenodd" d="M192.378 123.56C192.378 120.064 189.526 117.12 185.937 117.12C182.349 117.12 179.497 120.064 179.497 123.56C179.497 127.148 182.349 130 185.937 130C189.526 130 192.378 127.148 192.378 123.56Z" fill="#F47920"/>
<path fill-rule="evenodd" clip-rule="evenodd" d="M214.182 117.12C214.182 113.624 211.33 110.772 207.742 110.772C204.246 110.772 201.302 113.624 201.302 117.12C201.302 120.708 204.154 123.56 207.742 123.56C211.33 123.652 214.182 120.8 214.182 117.12Z" fill="#F47920"/>
<path fill-rule="evenodd" clip-rule="evenodd" d="M228.719 102.859C228.719 99.2711 225.775 96.419 222.278 96.419C218.69 96.419 215.838 99.2711 215.838 102.859C215.838 106.355 218.69 109.299 222.278 109.299C225.867 109.299 228.719 106.355 228.719 102.859Z" fill="#F47920"/>
<path d="M94.9467 41.2172H91.6346C88.2305 41.2172 85.8385 42.2293 84.3664 44.3454C82.8944 46.4614 82.1584 50.0495 82.1584 55.0176V91.0827C82.1584 98.7189 81.4223 105.251 79.9503 110.771C78.4782 116.291 75.0742 120.892 69.646 124.48C64.2178 128.068 56.9496 129.908 47.8414 129.908C39.0091 129.908 31.9249 128.252 26.4048 125.124C20.8846 121.904 17.2965 117.763 15.5484 112.703C13.8004 107.643 12.9724 99.915 12.9724 89.3347V54.5576C12.9724 50.0495 12.3284 46.6454 11.1323 44.5294C9.93628 42.3213 7.36021 41.3093 3.31209 41.3093H0V38.8252H38.4571V41.3093H34.961C32.1089 41.3093 29.9009 42.0453 28.0608 43.6093C26.3128 45.1734 25.3927 48.7615 25.3927 54.5576V93.3827C25.3927 100.743 26.1288 106.631 27.5088 110.955C28.9808 115.279 31.4649 118.591 34.961 120.892C38.5491 123.192 43.0572 124.296 48.4854 124.296C53.7295 124.296 58.6057 123.192 63.2058 120.892C67.8059 118.683 71.118 115.555 73.0501 111.691C74.9821 107.827 75.9942 100.743 75.9942 90.5307V54.4656C75.9942 48.5775 75.1662 44.8974 73.5101 43.4253C71.8541 41.9533 69.554 41.2172 66.5179 41.2172H63.2058V38.7332H94.6707V41.2172H94.9467Z" fill="#005883"/>
<path d="M146.192 40.2052H144.352C142.144 40.2052 140.672 40.7572 139.936 41.8612C139.2 42.9652 138.832 44.9893 138.832 47.8414V91.3586H137.452L103.411 49.8654V82.2504C103.411 85.7465 103.871 87.8625 104.791 88.6906C105.711 89.5186 107.091 89.9786 108.931 89.9786H110.771V91.4506H92.7386V89.8866H94.5787C96.1427 89.8866 97.5228 89.5186 98.5348 88.6906C99.5468 87.8625 100.099 85.7465 100.099 82.2504V45.6333C98.3508 43.6093 96.7867 42.1372 95.2227 41.4012C93.6586 40.5732 91.9106 40.2052 89.8865 40.2052V38.7331H103.871L135.428 78.2022V47.8414C135.428 44.4373 134.968 42.3212 133.956 41.4012C133.036 40.5732 131.656 40.1132 129.908 40.1132H128.068V38.6411H146.1V40.2052H146.192Z" fill="#005883"/>
<path d="M204.154 79.3984H208.386C211.054 79.3984 213.262 78.1104 215.102 75.5344C216.942 72.9583 217.862 69.3702 217.862 64.9541C217.862 61.0899 217.034 57.7778 215.378 55.0177C213.722 52.2577 211.422 50.8776 208.294 50.8776H204.062V79.3984H204.154ZM188.053 91.5428V38.8253H208.386C217.218 38.8253 223.842 41.4933 228.166 46.7375C232.583 51.9816 234.791 58.0539 234.791 64.9541C234.791 72.8663 232.399 79.2144 227.706 84.1826C223.014 89.1507 216.85 91.5428 209.398 91.5428H188.053ZM156.404 69.6462H164.961L160.729 54.3738L156.404 69.6462ZM171.401 91.5428L168.365 81.1465H154.012L150.792 91.5428H137.452L154.012 38.8253H171.401L188.145 91.5428H171.401Z" fill="#F0B429"/>
<path d="M482.002 77.0064H479.978V59.1579H482.002V77.0064ZM473.905 70.3822C473.077 70.2902 472.433 70.2902 471.973 70.2902C470.317 70.2902 469.121 70.5662 468.201 71.1182C467.281 71.6702 466.821 72.4062 466.821 73.4183C466.821 74.0623 467.097 74.6144 467.557 75.0744C468.017 75.5344 468.753 75.7183 469.673 75.7183C470.869 75.7183 471.973 75.2583 472.709 74.3383C473.537 73.4183 473.905 72.4063 473.905 71.2102C473.905 71.0262 473.905 70.7502 473.905 70.3822ZM476.206 77.0064H474.182C474.09 76.5464 473.998 75.8104 473.905 74.6144C472.985 76.4544 471.421 77.3744 469.305 77.3744C467.833 77.3744 466.729 77.0064 465.901 76.1784C465.073 75.4423 464.705 74.4303 464.705 73.3263C464.705 71.9463 465.257 70.8422 466.453 70.0142C467.557 69.1862 469.489 68.7262 472.249 68.7262C472.617 68.7262 473.17 68.7261 473.998 68.8181C473.998 67.8061 473.906 66.9781 473.722 66.5181C473.538 66.0581 473.261 65.6901 472.709 65.4141C472.157 65.1381 471.513 64.9541 470.685 64.9541C468.569 64.9541 467.373 65.7821 467.005 67.3461L465.073 66.9781C465.533 64.586 467.465 63.298 470.869 63.298C472.709 63.298 473.998 63.666 474.734 64.4941C475.47 65.3221 475.838 66.7021 475.838 68.7262V74.3383C475.838 75.3503 475.93 76.1784 476.206 77.0064ZM461.669 77.0064H459.737V68.5421C459.737 67.3461 459.461 66.4261 458.909 65.9661C458.357 65.5061 457.713 65.2301 456.977 65.2301C455.965 65.2301 455.045 65.6901 454.309 66.5181C453.573 67.3461 453.205 68.4502 453.205 69.8302V77.0984H451.181V63.85H453.113V66.2421C454.217 64.402 455.597 63.482 457.253 63.482C458.265 63.482 459.093 63.758 459.737 64.218C460.473 64.77 460.933 65.3221 461.209 65.9661C461.485 66.6101 461.577 67.7141 461.577 69.4622V77.0064H461.669ZM442.257 75.6264C443.269 75.6264 444.189 75.1663 444.925 74.3383C445.661 73.5103 446.029 72.1303 446.029 70.2902C446.029 68.4502 445.661 67.1621 444.925 66.3341C444.189 65.5061 443.269 65.138 442.349 65.138C441.337 65.138 440.417 65.5061 439.773 66.4261C439.037 67.2541 438.668 68.5421 438.668 70.3822C438.668 72.3143 439.037 73.6943 439.773 74.5223C440.325 75.2583 441.153 75.6264 442.257 75.6264ZM442.073 77.3744C440.233 77.3744 438.853 76.7304 437.841 75.3504C436.828 73.9703 436.276 72.3143 436.276 70.3822C436.276 68.2661 436.828 66.6101 438.024 65.3221C439.129 64.034 440.601 63.39 442.257 63.39C444.097 63.39 445.477 64.0341 446.581 65.4141C447.593 66.7021 448.145 68.3581 448.145 70.3822C448.145 72.4063 447.593 74.1543 446.489 75.4423C445.293 76.7304 443.913 77.3744 442.073 77.3744ZM433.24 77.0064H431.216V63.758H433.24V77.0064ZM433.332 61.366H431.124V59.0659H433.332V61.366ZM426.524 72.4063L428.364 72.7743C428.088 74.2463 427.536 75.3503 426.616 76.1784C425.696 77.0064 424.592 77.3744 423.212 77.3744C421.372 77.3744 419.992 76.7304 419.072 75.3504C418.152 73.9703 417.6 72.4063 417.6 70.3822C417.6 68.3581 418.06 66.7021 419.072 65.4141C420.084 64.1261 421.464 63.39 423.212 63.39C424.684 63.39 425.788 63.85 426.708 64.678C427.536 65.506 428.088 66.6101 428.364 67.9902L426.524 68.3581C426.156 66.1501 425.144 65.0461 423.396 65.0461C422.292 65.0461 421.372 65.506 420.728 66.5181C420.084 67.4381 419.808 68.7262 419.808 70.2902C419.808 71.9463 420.084 73.3263 420.728 74.2463C421.372 75.1663 422.2 75.6264 423.304 75.6264C424.96 75.6264 426.064 74.5223 426.524 72.4063ZM412.54 70.3822C411.712 70.2902 411.068 70.2902 410.608 70.2902C408.952 70.2902 407.756 70.5662 406.836 71.1182C405.916 71.6702 405.456 72.4062 405.456 73.4183C405.456 74.0623 405.732 74.6144 406.192 75.0744C406.652 75.5344 407.388 75.7183 408.308 75.7183C409.596 75.7183 410.608 75.2583 411.344 74.3383C412.08 73.4183 412.54 72.4063 412.54 71.2102C412.632 71.0262 412.632 70.7502 412.54 70.3822ZM414.84 77.0064H412.816C412.724 76.5464 412.632 75.8104 412.54 74.6144C411.62 76.4544 410.056 77.3744 407.94 77.3744C406.468 77.3744 405.364 77.0064 404.536 76.1784C403.708 75.4423 403.34 74.4303 403.34 73.3263C403.34 71.9463 403.891 70.8422 405.088 70.0142C406.192 69.1862 408.124 68.7262 410.884 68.7262C411.252 68.7262 411.804 68.7261 412.632 68.8181C412.632 67.8061 412.54 66.9781 412.356 66.5181C412.172 66.0581 411.896 65.6901 411.344 65.4141C410.792 65.1381 410.148 64.9541 409.32 64.9541C407.204 64.9541 406.008 65.7821 405.64 67.3461L403.707 66.9781C404.168 64.586 406.1 63.298 409.596 63.298C411.436 63.298 412.724 63.666 413.46 64.4941C414.196 65.3221 414.564 66.7021 414.564 68.7262V74.3383C414.564 75.3503 414.656 76.1784 414.84 77.0064ZM400.211 77.0064H398.003L388.711 61.366V62.562C388.711 63.022 388.711 63.39 388.711 63.666V77.0064H386.871V59.1579H389.631L398.279 73.7863V72.4982C398.279 72.0382 398.279 71.5783 398.279 71.2102V59.1579H400.027V77.0064H400.211ZM373.991 68.9102C373.991 67.7141 373.623 66.7941 372.887 66.1501C372.151 65.4141 371.323 65.138 370.403 65.138C369.391 65.138 368.562 65.5981 367.918 66.5181C367.274 67.4381 366.906 68.7262 366.906 70.3822C366.906 72.1303 367.182 73.5103 367.826 74.4303C368.47 75.3504 369.299 75.8104 370.311 75.8104C371.231 75.8104 372.151 75.4424 372.887 74.6144C373.623 73.7863 373.991 72.8663 373.991 71.7622V68.9102ZM376.015 59.0659V77.0064H374.175V74.7063C373.255 76.4544 371.875 77.3744 370.035 77.3744C368.471 77.3744 367.182 76.7304 366.262 75.4423C365.25 74.1543 364.79 72.4983 364.79 70.4742C364.79 68.4502 365.25 66.7941 366.262 65.4141C367.274 64.0341 368.562 63.39 370.219 63.39C371.783 63.39 373.071 64.126 374.083 65.5981V59.1579H376.015V59.0659ZM359.638 70.3822C358.81 70.2902 358.166 70.2902 357.706 70.2902C356.05 70.2902 354.854 70.5662 353.934 71.1182C353.014 71.6702 352.554 72.4062 352.554 73.4183C352.554 74.0623 352.83 74.6144 353.29 75.0744C353.75 75.5344 354.486 75.7183 355.406 75.7183C356.602 75.7183 357.706 75.2583 358.442 74.3383C359.27 73.4183 359.638 72.4063 359.638 71.2102C359.638 71.0262 359.638 70.7502 359.638 70.3822ZM361.846 77.0064H359.822C359.73 76.5464 359.638 75.8104 359.546 74.6144C358.626 76.4544 357.062 77.3744 354.946 77.3744C353.474 77.3744 352.37 77.0064 351.542 76.1784C350.714 75.4423 350.346 74.4303 350.346 73.3263C350.346 71.9463 350.898 70.8422 352.094 70.0142C353.198 69.1862 355.13 68.7262 357.89 68.7262C358.258 68.7262 358.81 68.7261 359.638 68.8181C359.638 67.8061 359.546 66.9781 359.362 66.5181C359.178 66.0581 358.902 65.6901 358.35 65.4141C357.798 65.1381 357.154 64.9541 356.326 64.9541C354.21 64.9541 353.014 65.7821 352.646 67.3461L350.714 66.9781C351.174 64.586 353.106 63.298 356.51 63.298C358.35 63.298 359.638 63.666 360.374 64.4941C361.11 65.3221 361.478 66.7021 361.478 68.7262V74.3383C361.57 75.3503 361.662 76.1784 361.846 77.0064ZM345.378 68.9102C345.378 67.7141 345.01 66.7941 344.274 66.1501C343.538 65.4141 342.71 65.138 341.79 65.138C340.778 65.138 339.95 65.5981 339.306 66.5181C338.662 67.4381 338.294 68.7262 338.294 70.3822C338.294 72.1303 338.57 73.5103 339.214 74.4303C339.858 75.3504 340.686 75.8104 341.698 75.8104C342.618 75.8104 343.538 75.4424 344.274 74.6144C345.01 73.7863 345.378 72.8663 345.378 71.7622V68.9102ZM347.402 59.0659V77.0064H345.562V74.7063C344.642 76.4544 343.262 77.3744 341.422 77.3744C339.858 77.3744 338.57 76.7304 337.558 75.4423C336.546 74.1543 336.086 72.4983 336.086 70.4742C336.086 68.4502 336.546 66.7941 337.558 65.4141C338.57 64.0341 339.858 63.39 341.514 63.39C343.078 63.39 344.366 64.126 345.378 65.5981V59.1579H347.402V59.0659ZM332.957 77.0064H330.933V63.758H332.957V77.0064ZM333.049 61.366H330.841V59.0659H333.049V61.366ZM316.673 73.6023L318.605 73.2343C319.065 74.8904 320.445 75.7183 322.745 75.7183C323.573 75.7183 324.309 75.5344 324.953 75.1663C325.505 74.7983 325.873 74.2463 325.873 73.5103C325.873 72.4983 325.137 71.8543 323.573 71.4862L320.813 70.9342C319.709 70.7502 318.881 70.2902 318.237 69.7382C317.593 69.0942 317.317 68.3582 317.317 67.3461C317.317 66.2421 317.777 65.3221 318.605 64.586C319.525 63.85 320.629 63.482 322.193 63.482C325.045 63.482 326.793 64.586 327.529 66.8861L325.597 67.2541C325.045 65.8741 323.941 65.2301 322.285 65.2301C321.457 65.2301 320.721 65.4141 320.261 65.7821C319.709 66.1501 319.433 66.6101 319.433 67.2541C319.433 68.2662 320.077 68.8182 321.457 69.0942L324.033 69.5542C326.701 70.0142 328.081 71.3022 328.081 73.5103C328.081 74.7063 327.621 75.7184 326.609 76.4544C325.597 77.1904 324.309 77.5584 322.561 77.5584C319.341 77.3744 317.409 76.0864 316.673 73.6023ZM311.521 77.0064H309.497V63.758H311.337V66.8861C311.981 65.4141 312.625 64.4941 313.269 64.0341C313.913 63.574 314.557 63.39 315.201 63.39C315.385 63.39 315.661 63.39 316.029 63.482V65.4141H315.569C314.465 65.4141 313.453 65.8741 312.717 66.7021C311.981 67.5301 311.613 68.6342 311.521 70.0142V77.0064V77.0064ZM304.161 69.0022C304.161 68.2661 303.977 67.6221 303.793 66.9781C303.609 66.4261 303.149 65.8741 302.597 65.5061C302.045 65.1381 301.401 64.862 300.665 64.862C299.653 64.862 298.824 65.2301 298.088 65.9661C297.352 66.7021 296.984 67.7141 296.892 68.9102H304.161V69.0022ZM304.253 73.0503L306.185 73.4183C305.817 74.5223 305.173 75.4423 304.161 76.1784C303.149 76.9144 301.953 77.2824 300.573 77.2824C298.733 77.2824 297.26 76.6384 296.156 75.3504C295.052 74.0623 294.5 72.4063 294.5 70.3822C294.5 68.2661 295.052 66.6101 296.248 65.2301C297.444 63.942 298.824 63.298 300.665 63.298C302.413 63.298 303.793 63.942 304.805 65.138C305.817 66.3341 306.369 68.0822 306.461 70.4742H296.8C296.8 72.4983 297.26 73.7863 298.088 74.5223C298.916 75.2583 299.837 75.5344 300.757 75.5344C302.413 75.6264 303.609 74.7983 304.253 73.0503ZM293.58 63.758L288.98 77.0064H286.864L282.172 63.758H284.472L288.152 74.5223L291.832 63.758H293.58ZM279.78 77.0064H277.756V63.758H279.78V77.0064ZM279.78 61.366H277.572V59.0659H279.78V61.366ZM273.616 77.0064H271.684V68.5421C271.684 67.3461 271.408 66.4261 270.856 65.9661C270.304 65.5061 269.66 65.2301 268.924 65.2301C267.912 65.2301 266.992 65.6901 266.256 66.5181C265.52 67.3461 265.152 68.4502 265.152 69.8302V77.0984H263.127V63.85H265.06V66.2421C266.164 64.402 267.544 63.482 269.2 63.482C270.212 63.482 271.04 63.758 271.684 64.218C272.42 64.77 272.88 65.3221 273.156 65.9661C273.432 66.6101 273.524 67.7141 273.524 69.4622V77.0064H273.616ZM257.423 59.0659H259.263V70.7502C259.263 73.0503 258.711 74.7983 257.515 75.8104C256.411 76.8224 254.847 77.3744 253.007 77.3744C250.983 77.3744 249.419 76.8224 248.407 75.8104C247.395 74.7983 246.935 73.1423 246.935 70.8422V59.1579H249.143V70.8422C249.143 72.2223 249.327 73.2343 249.603 73.7863C249.879 74.3383 250.431 74.7984 251.075 75.0744C251.719 75.3504 252.455 75.4423 253.099 75.4423C254.479 75.4423 255.491 75.0743 256.227 74.3383C256.963 73.6023 257.331 72.4063 257.331 70.8422V59.0659H257.423Z" fill="#005883" stroke="#005883" stroke-width="0.187" stroke-miterlimit="22.926"/>
<path d="M479.794 96.4191C478.966 96.3271 478.322 96.3271 477.862 96.3271C476.206 96.3271 475.01 96.6031 474.09 97.1552C473.17 97.7072 472.71 98.4432 472.71 99.5472C472.71 100.191 472.986 100.743 473.446 101.203C473.906 101.663 474.642 101.939 475.562 101.939C476.758 101.939 477.77 101.479 478.598 100.559C479.426 99.6392 479.794 98.5352 479.794 97.3391C479.794 97.0631 479.794 96.7871 479.794 96.4191ZM482.002 103.135H479.978C479.886 102.675 479.794 101.939 479.702 100.743C478.782 102.583 477.31 103.503 475.102 103.503C473.63 103.503 472.526 103.135 471.698 102.307C470.87 101.479 470.502 100.559 470.502 99.4552C470.502 98.0752 471.054 96.9711 472.158 96.1431C473.262 95.2231 475.194 94.8551 477.862 94.8551C478.23 94.8551 478.782 94.8551 479.61 94.9471C479.61 93.843 479.518 93.107 479.334 92.647C479.15 92.187 478.874 91.819 478.322 91.543C477.77 91.267 477.126 91.083 476.298 91.083C474.274 91.083 472.986 91.911 472.71 93.4751L470.778 93.107C471.238 90.623 473.17 89.4269 476.574 89.4269C478.414 89.4269 479.702 89.7949 480.438 90.6229C481.174 91.451 481.542 92.831 481.542 94.8551V100.559C481.726 101.479 481.818 102.307 482.002 103.135ZM467.649 103.135H465.625V89.795H467.649V103.135ZM467.741 87.3109H465.533V85.0108H467.741V87.3109ZM461.025 98.4432L462.865 98.8112C462.589 100.283 462.037 101.479 461.117 102.307C460.197 103.135 459.093 103.595 457.805 103.595C455.965 103.595 454.585 102.951 453.665 101.571C452.745 100.191 452.285 98.5352 452.285 96.6031C452.285 94.5791 452.745 92.923 453.757 91.543C454.769 90.1629 456.149 89.5189 457.805 89.5189C459.277 89.5189 460.381 89.9789 461.209 90.807C462.037 91.635 462.589 92.831 462.773 94.2111L460.933 94.579C460.565 92.371 459.553 91.267 457.805 91.267C456.701 91.267 455.781 91.727 455.229 92.739C454.585 93.751 454.309 94.9471 454.309 96.5111C454.309 98.2592 454.585 99.5472 455.229 100.467C455.781 101.387 456.701 101.847 457.805 101.847C459.461 101.755 460.565 100.651 461.025 98.4432ZM449.157 103.135H447.225V94.4871C447.225 93.291 446.949 92.371 446.397 91.911C445.845 91.451 445.201 91.175 444.465 91.175C443.453 91.175 442.533 91.635 441.889 92.463C441.153 93.291 440.877 94.3951 440.877 95.7751V103.135H438.853V89.795H440.785V92.279C441.889 90.3469 443.269 89.4269 444.925 89.4269C445.937 89.4269 446.765 89.7029 447.409 90.1629C448.053 90.7149 448.605 91.267 448.789 91.911C449.065 92.555 449.157 93.751 449.157 95.4071V103.135ZM432.78 96.4191C431.952 96.3271 431.308 96.3271 430.848 96.3271C429.192 96.3271 427.996 96.6031 427.076 97.1552C426.156 97.7072 425.696 98.4432 425.696 99.5472C425.696 100.191 425.972 100.743 426.432 101.203C426.892 101.663 427.628 101.939 428.548 101.939C429.744 101.939 430.756 101.479 431.584 100.559C432.412 99.6392 432.78 98.5352 432.78 97.3391C432.872 97.0631 432.872 96.7871 432.78 96.4191ZM435.081 103.135H433.056C432.964 102.675 432.872 101.939 432.78 100.743C431.86 102.583 430.388 103.503 428.18 103.503C426.708 103.503 425.604 103.135 424.776 102.307C423.948 101.479 423.58 100.559 423.58 99.4552C423.58 98.0752 424.132 96.9711 425.236 96.1431C426.34 95.2231 428.272 94.8551 430.94 94.8551C431.308 94.8551 431.86 94.8551 432.688 94.9471C432.688 93.843 432.596 93.107 432.412 92.647C432.228 92.187 431.952 91.819 431.4 91.543C430.848 91.267 430.204 91.083 429.376 91.083C427.352 91.083 426.064 91.911 425.788 93.4751L423.948 93.107C424.408 90.623 426.34 89.4269 429.744 89.4269C431.584 89.4269 432.872 89.7949 433.608 90.6229C434.344 91.451 434.712 92.831 434.712 94.8551V100.559C434.804 101.479 434.897 102.307 435.081 103.135ZM422.568 101.663V103.319C421.832 103.411 421.188 103.503 420.728 103.503C418.152 103.503 416.956 102.123 416.956 99.4552V91.359H414.656V89.7029H416.956L417.048 86.2988L418.98 86.1148V89.7029H421.924V91.359H418.98V99.7312C418.98 101.111 419.716 101.755 421.096 101.755C421.464 101.847 422.016 101.755 422.568 101.663ZM402.512 99.6392L404.444 99.2712C404.904 100.927 406.284 101.847 408.584 101.847C409.412 101.847 410.148 101.663 410.7 101.295C411.252 100.927 411.62 100.375 411.62 99.6392C411.62 98.6272 410.884 97.8912 409.412 97.6152L406.652 97.0631C405.548 96.8791 404.72 96.4191 404.076 95.7751C403.432 95.1311 403.156 94.3031 403.156 93.291C403.156 92.187 403.616 91.2669 404.444 90.4389C405.364 89.7029 406.468 89.3349 407.94 89.3349C410.792 89.3349 412.54 90.4389 413.184 92.739L411.344 93.107C410.792 91.727 409.688 90.991 408.032 90.991C407.204 90.991 406.56 91.175 406.008 91.543C405.456 91.911 405.18 92.371 405.18 93.015C405.18 94.0271 405.824 94.6711 407.204 94.8551L409.78 95.3151C412.448 95.7751 413.828 97.1552 413.828 99.2712C413.828 100.467 413.368 101.479 412.356 102.215C411.344 102.951 410.056 103.319 408.4 103.319C405.18 103.503 403.248 102.215 402.512 99.6392ZM400.211 103.135H398.187V89.795H400.211V103.135ZM400.303 87.3109H398.095V85.0108H400.303V87.3109ZM383.375 101.203H386.963C388.895 101.203 390.275 100.559 391.287 99.1792C392.299 97.7991 392.759 96.0511 392.759 93.843C392.759 92.095 392.299 90.4389 391.379 89.0589C390.459 87.6788 388.987 86.9428 386.963 86.9428H383.375V101.203V101.203ZM381.167 103.135V85.0108H387.147C389.631 85.0108 391.563 85.8388 392.943 87.5869C394.323 89.3349 395.059 91.451 395.059 93.9351C395.059 96.5111 394.415 98.6272 393.035 100.375C391.655 102.123 389.999 103.043 387.883 103.043H381.167V103.135ZM365.986 96.4191C365.158 96.3271 364.514 96.3271 364.054 96.3271C362.49 96.3271 361.202 96.6031 360.282 97.1552C359.362 97.7072 358.902 98.4432 358.902 99.5472C358.902 100.191 359.178 100.743 359.638 101.203C360.098 101.663 360.834 101.939 361.754 101.939C362.95 101.939 363.962 101.479 364.79 100.559C365.618 99.6392 365.986 98.5352 365.986 97.3391C365.986 97.0631 365.986 96.7871 365.986 96.4191ZM368.195 103.135H366.171C366.079 102.675 365.987 101.939 365.895 100.743C364.974 102.583 363.502 103.503 361.294 103.503C359.822 103.503 358.718 103.135 357.89 102.307C357.062 101.479 356.694 100.559 356.694 99.4552C356.694 98.0752 357.246 96.9711 358.35 96.1431C359.454 95.2231 361.386 94.8551 364.054 94.8551C364.422 94.8551 364.974 94.8551 365.803 94.9471C365.803 93.843 365.71 93.107 365.526 92.647C365.342 92.187 365.066 91.819 364.514 91.543C363.962 91.267 363.318 91.083 362.49 91.083C360.374 91.083 359.178 91.911 358.902 93.4751L357.062 93.107C357.522 90.623 359.454 89.4269 362.858 89.4269C364.698 89.4269 365.987 89.7949 366.723 90.6229C367.459 91.451 367.827 92.831 367.827 94.8551V100.559C367.919 101.479 368.011 102.307 368.195 103.135ZM346.942 89.7029L341.698 104.607C340.962 106.723 339.674 107.827 338.018 107.827C337.466 107.827 336.914 107.735 336.27 107.551V105.895C336.822 105.987 337.282 106.079 337.65 106.079C338.294 106.079 338.846 105.895 339.306 105.527C339.766 105.159 340.226 104.239 340.594 102.767L336.086 89.6109H338.202L341.698 99.6392L345.286 89.6109H346.942V89.7029ZM322.929 96.4191C322.101 96.3271 321.457 96.3271 320.997 96.3271C319.341 96.3271 318.145 96.6031 317.225 97.1552C316.305 97.7072 315.845 98.4432 315.845 99.5472C315.845 100.191 316.121 100.743 316.581 101.203C317.041 101.663 317.777 101.939 318.697 101.939C319.893 101.939 320.905 101.479 321.733 100.559C322.561 99.6392 322.929 98.5352 322.929 97.3391C322.929 97.0631 322.929 96.7871 322.929 96.4191ZM325.229 103.135H323.205C323.113 102.675 323.021 101.939 323.021 100.743C322.101 102.583 320.629 103.503 318.421 103.503C316.949 103.503 315.845 103.135 315.017 102.307C314.189 101.479 313.821 100.559 313.821 99.4552C313.821 98.0752 314.373 96.9711 315.477 96.1431C316.581 95.2231 318.513 94.8551 321.181 94.8551C321.549 94.8551 322.101 94.8551 322.929 94.9471C322.929 93.843 322.837 93.107 322.653 92.647C322.469 92.187 322.193 91.819 321.641 91.543C321.089 91.267 320.445 91.083 319.617 91.083C317.593 91.083 316.305 91.911 316.029 93.4751L314.189 93.107C314.649 90.623 316.581 89.4269 319.985 89.4269C321.825 89.4269 323.113 89.7949 323.849 90.6229C324.585 91.451 324.953 92.831 324.953 94.8551V100.559C324.953 101.479 325.045 102.307 325.229 103.135ZM312.717 101.663V103.319C311.981 103.411 311.337 103.503 310.877 103.503C308.301 103.503 307.105 102.123 307.105 99.4552V91.359H304.805V89.7029H307.105L307.197 86.2988L309.129 86.1148V89.7029H312.073V91.359H309.129V99.7312C309.129 101.111 309.865 101.755 311.245 101.755C311.613 101.847 312.073 101.755 312.717 101.663ZM299.101 103.135H297.077V89.795H298.825V92.923C299.469 91.451 300.113 90.531 300.757 90.0709C301.401 89.6109 302.045 89.4269 302.689 89.4269C302.873 89.4269 303.149 89.4269 303.517 89.5189V91.543H303.149C302.045 91.543 301.125 92.003 300.297 92.831C299.561 93.6591 299.193 94.8551 299.101 96.2351V103.135ZM291.832 95.0391C291.832 94.303 291.648 93.6591 291.464 93.015C291.28 92.463 290.82 91.911 290.36 91.543C289.808 91.175 289.164 90.8989 288.428 90.8989C287.416 90.8989 286.588 91.267 285.852 92.003C285.116 92.739 284.748 93.751 284.656 95.0391H291.832V95.0391ZM291.924 99.0872L293.856 99.4552C293.488 100.559 292.844 101.571 291.832 102.307C290.82 103.043 289.624 103.411 288.244 103.411C286.496 103.411 285.024 102.767 283.92 101.479C282.816 100.191 282.264 98.5352 282.264 96.4191C282.264 94.303 282.816 92.555 284.012 91.267C285.208 89.9789 286.588 89.3349 288.336 89.3349C290.084 89.3349 291.464 89.979 292.476 91.175C293.488 92.371 294.04 94.211 294.04 96.6031H284.472C284.472 98.6272 284.932 100.007 285.76 100.651C286.588 101.387 287.508 101.755 288.428 101.755C290.084 101.755 291.28 100.835 291.924 99.0872ZM279.228 103.135H277.204V89.795H279.228V103.135ZM279.228 87.3109H277.02V85.0108H279.228V87.3109ZM264.968 97.8912C265.06 99.2712 265.52 100.283 266.164 100.835C266.9 101.479 267.636 101.755 268.464 101.755C269.476 101.755 270.304 101.295 270.948 100.375C271.592 99.4552 271.868 98.1672 271.868 96.6031C271.868 94.8551 271.592 93.5671 270.948 92.555C270.304 91.543 269.476 91.083 268.372 91.083C267.544 91.083 266.716 91.451 266.072 92.095C265.336 92.831 264.968 93.7511 264.876 94.8551V97.8912H264.968ZM263.864 103.135H262.852V85.0108H264.876V91.911C265.796 90.163 267.084 89.3349 268.74 89.3349C270.212 89.3349 271.5 89.979 272.512 91.175C273.524 92.371 274.076 94.119 274.076 96.4191C274.076 98.4432 273.616 100.099 272.604 101.387C271.592 102.767 270.304 103.411 268.74 103.411C266.992 103.411 265.612 102.583 264.6 100.835L263.864 103.135ZM256.411 96.1431L253.651 87.4949L250.891 96.1431H256.411ZM261.012 103.135H258.711L256.963 97.8912H250.431L248.867 103.135H247.027L252.731 85.0108H255.307L261.012 103.135Z" fill="#F47920" stroke="#F47920" stroke-width="0.187" stroke-miterlimit="22.926"/>
</svg>
